<?xml version="1.0" encoding="UTF-8" standalone="no"?>
<!DOCTYPE svg PUBLIC "-//W3C//DTD SVG 1.1//EN"
 "http://www.w3.org/Graphics/SVG/1.1/DTD/svg11.dtd">
<!-- Generated by graphviz version 2.47.0 (20210316.0004)
 -->
<!-- Title: dependencies Pages: 1 -->
<svg width="504pt" height="211pt"
 viewBox="0.00 0.00 504.00 211.00" xmlns="http://www.w3.org/2000/svg" xmlns:xlink="http://www.w3.org/1999/xlink">
<g id="graph0" class="graph" transform="scale(1 1) rotate(0) translate(4 207)">
<title>dependencies</title>
<polygon fill="white" stroke="transparent" points="-4,4 -4,-207 500,-207 500,4 -4,4"/>
<text text-anchor="start" x="227.01" y="-42.4" font-family="Times-12" font-weight="bold" font-size="14.00">Legend</text>
<polygon fill="#ffffb3" stroke="transparent" points="14,-10 14,-30 34,-30 34,-10 14,-10"/>
<text text-anchor="start" x="37.63" y="-15.4" font-family="Times-12" font-size="14.00"> &#160;Declarations</text>
<polygon fill="#8dd3c7" stroke="transparent" points="127,-10 127,-30 147,-30 147,-10 127,-10"/>
<text text-anchor="start" x="150.73" y="-15.4" font-family="Times-12" font-size="14.00"> &#160;Module</text>
<polygon fill="#80b1d3" stroke="transparent" points="213,-10 213,-30 233,-30 233,-10 213,-10"/>
<text text-anchor="start" x="236.78" y="-15.4" font-family="Times-12" font-size="14.00"> &#160;Bootstrap</text>
<polygon fill="#fdb462" stroke="transparent" points="310,-10 310,-30 330,-30 330,-10 310,-10"/>
<text text-anchor="start" x="333.67" y="-15.4" font-family="Times-12" font-size="14.00"> &#160;Providers</text>
<polygon fill="#fb8072" stroke="transparent" points="406,-10 406,-30 426,-30 426,-10 406,-10"/>
<text text-anchor="start" x="429.73" y="-15.4" font-family="Times-12" font-size="14.00"> &#160;Exports</text>
<g id="clust1" class="cluster">
<title>cluster_AuthenticationModule</title>
<polygon fill="none" stroke="black" stroke-dasharray="1,5" points="53,-70 53,-195 443,-195 443,-70 53,-70"/>
</g>
<g id="clust2" class="cluster">
<title>cluster_AuthenticationModule_declarations</title>
<polygon fill="none" stroke="black" points="61,-78 61,-130 435,-130 435,-78 61,-78"/>
</g>
<!-- AppSideLoginComponent -->
<g id="node1" class="node">
<title>AppSideLoginComponent</title>
<polygon fill="#ffffb3" stroke="black" points="426.77,-122 263.23,-122 263.23,-86 426.77,-86 426.77,-122"/>
<text text-anchor="middle" x="345" y="-99.8" font-family="Times,serif" font-size="14.00">AppSideLoginComponent</text>
</g>
<!-- AuthenticationModule -->
<g id="node3" class="node">
<title>AuthenticationModule</title>
<polygon fill="#8dd3c7" stroke="black" points="322.25,-187 319.25,-191 298.25,-191 295.25,-187 179.75,-187 179.75,-151 322.25,-151 322.25,-187"/>
<text text-anchor="middle" x="251" y="-164.8" font-family="Times,serif" font-size="14.00">AuthenticationModule</text>
</g>
<!-- AppSideLoginComponent&#45;&gt;AuthenticationModule -->
<g id="edge1" class="edge">
<title>AppSideLoginComponent&#45;&gt;AuthenticationModule</title>
<path fill="none" stroke="black" d="M292.75,-122.11C292.75,-122.11 292.75,-140.99 292.75,-140.99"/>
<polygon fill="black" stroke="black" points="289.25,-140.99 292.75,-150.99 296.25,-140.99 289.25,-140.99"/>
</g>
<!-- AppSideRegisterComponent -->
<g id="node2" class="node">
<title>AppSideRegisterComponent</title>
<polygon fill="#ffffb3" stroke="black" points="245.48,-122 68.52,-122 68.52,-86 245.48,-86 245.48,-122"/>
<text text-anchor="middle" x="157" y="-99.8" font-family="Times,serif" font-size="14.00">AppSideRegisterComponent</text>
</g>
<!-- AppSideRegisterComponent&#45;&gt;AuthenticationModule -->
<g id="edge2" class="edge">
<title>AppSideRegisterComponent&#45;&gt;AuthenticationModule</title>
<path fill="none" stroke="black" d="M212.56,-122.11C212.56,-122.11 212.56,-140.99 212.56,-140.99"/>
<polygon fill="black" stroke="black" points="209.06,-140.99 212.56,-150.99 216.06,-140.99 209.06,-140.99"/>
</g>
</g>
</svg>
