<?xml version="1.0" encoding="UTF-8" standalone="no"?>
<!DOCTYPE svg PUBLIC "-//W3C//DTD SVG 1.1//EN"
 "http://www.w3.org/Graphics/SVG/1.1/DTD/svg11.dtd">
<!-- Generated by graphviz version 2.47.0 (20210316.0004)
 -->
<!-- Title: dependencies Pages: 1 -->
<svg width="960pt" height="211pt"
 viewBox="0.00 0.00 960.00 211.00" xmlns="http://www.w3.org/2000/svg" xmlns:xlink="http://www.w3.org/1999/xlink">
<g id="graph0" class="graph" transform="scale(1 1) rotate(0) translate(4 207)">
<title>dependencies</title>
<polygon fill="white" stroke="transparent" points="-4,4 -4,-207 956,-207 956,4 -4,4"/>
<text text-anchor="start" x="455.01" y="-42.4" font-family="Times-12" font-weight="bold" font-size="14.00">Legend</text>
<polygon fill="#ffffb3" stroke="transparent" points="242,-10 242,-30 262,-30 262,-10 242,-10"/>
<text text-anchor="start" x="265.63" y="-15.4" font-family="Times-12" font-size="14.00"> &#160;Declarations</text>
<polygon fill="#8dd3c7" stroke="transparent" points="355,-10 355,-30 375,-30 375,-10 355,-10"/>
<text text-anchor="start" x="378.73" y="-15.4" font-family="Times-12" font-size="14.00"> &#160;Module</text>
<polygon fill="#80b1d3" stroke="transparent" points="441,-10 441,-30 461,-30 461,-10 441,-10"/>
<text text-anchor="start" x="464.78" y="-15.4" font-family="Times-12" font-size="14.00"> &#160;Bootstrap</text>
<polygon fill="#fdb462" stroke="transparent" points="538,-10 538,-30 558,-30 558,-10 538,-10"/>
<text text-anchor="start" x="561.67" y="-15.4" font-family="Times-12" font-size="14.00"> &#160;Providers</text>
<polygon fill="#fb8072" stroke="transparent" points="634,-10 634,-30 654,-30 654,-10 634,-10"/>
<text text-anchor="start" x="657.73" y="-15.4" font-family="Times-12" font-size="14.00"> &#160;Exports</text>
<g id="clust1" class="cluster">
<title>cluster_UicomponentsModule</title>
<polygon fill="none" stroke="black" stroke-dasharray="1,5" points="8,-70 8,-195 944,-195 944,-70 8,-70"/>
</g>
<g id="clust8" class="cluster">
<title>cluster_UicomponentsModule_imports</title>
<polygon fill="none" stroke="black" points="814,-78 814,-130 936,-130 936,-78 814,-78"/>
</g>
<g id="clust2" class="cluster">
<title>cluster_UicomponentsModule_declarations</title>
<polygon fill="none" stroke="black" points="16,-78 16,-130 806,-130 806,-78 16,-78"/>
</g>
<!-- AppBadgeComponent -->
<g id="node1" class="node">
<title>AppBadgeComponent</title>
<polygon fill="#ffffb3" stroke="black" points="797.7,-122 656.3,-122 656.3,-86 797.7,-86 797.7,-122"/>
<text text-anchor="middle" x="727" y="-99.8" font-family="Times,serif" font-size="14.00">AppBadgeComponent</text>
</g>
<!-- UicomponentsModule -->
<g id="node6" class="node">
<title>UicomponentsModule</title>
<polygon fill="#8dd3c7" stroke="black" points="562.7,-187 559.7,-191 538.7,-191 535.7,-187 421.3,-187 421.3,-151 562.7,-151 562.7,-187"/>
<text text-anchor="middle" x="492" y="-164.8" font-family="Times,serif" font-size="14.00">UicomponentsModule</text>
</g>
<!-- AppBadgeComponent&#45;&gt;UicomponentsModule -->
<g id="edge1" class="edge">
<title>AppBadgeComponent&#45;&gt;UicomponentsModule</title>
<path fill="none" stroke="black" d="M727,-122.02C727,-139.37 727,-163 727,-163 727,-163 572.83,-163 572.83,-163"/>
<polygon fill="black" stroke="black" points="572.83,-159.5 562.83,-163 572.83,-166.5 572.83,-159.5"/>
</g>
<!-- AppChipsComponent -->
<g id="node2" class="node">
<title>AppChipsComponent</title>
<polygon fill="#ffffb3" stroke="black" points="638.11,-122 499.89,-122 499.89,-86 638.11,-86 638.11,-122"/>
<text text-anchor="middle" x="569" y="-99.8" font-family="Times,serif" font-size="14.00">AppChipsComponent</text>
</g>
<!-- AppChipsComponent&#45;&gt;UicomponentsModule -->
<g id="edge2" class="edge">
<title>AppChipsComponent&#45;&gt;UicomponentsModule</title>
<path fill="none" stroke="black" d="M531.27,-122.11C531.27,-122.11 531.27,-140.99 531.27,-140.99"/>
<polygon fill="black" stroke="black" points="527.77,-140.99 531.27,-150.99 534.77,-140.99 527.77,-140.99"/>
</g>
<!-- AppListsComponent -->
<g id="node3" class="node">
<title>AppListsComponent</title>
<polygon fill="#ffffb3" stroke="black" points="482.16,-122 349.84,-122 349.84,-86 482.16,-86 482.16,-122"/>
<text text-anchor="middle" x="416" y="-99.8" font-family="Times,serif" font-size="14.00">AppListsComponent</text>
</g>
<!-- AppListsComponent&#45;&gt;UicomponentsModule -->
<g id="edge3" class="edge">
<title>AppListsComponent&#45;&gt;UicomponentsModule</title>
<path fill="none" stroke="black" d="M451.87,-122.11C451.87,-122.11 451.87,-140.99 451.87,-140.99"/>
<polygon fill="black" stroke="black" points="448.37,-140.99 451.87,-150.99 455.37,-140.99 448.37,-140.99"/>
</g>
<!-- AppMenuComponent -->
<g id="node4" class="node">
<title>AppMenuComponent</title>
<polygon fill="#ffffb3" stroke="black" points="332.1,-122 193.9,-122 193.9,-86 332.1,-86 332.1,-122"/>
<text text-anchor="middle" x="263" y="-99.8" font-family="Times,serif" font-size="14.00">AppMenuComponent</text>
</g>
<!-- AppMenuComponent&#45;&gt;UicomponentsModule -->
<g id="edge4" class="edge">
<title>AppMenuComponent&#45;&gt;UicomponentsModule</title>
<path fill="none" stroke="black" d="M263,-122.02C263,-139.37 263,-163 263,-163 263,-163 411.11,-163 411.11,-163"/>
<polygon fill="black" stroke="black" points="411.11,-166.5 421.11,-163 411.11,-159.5 411.11,-166.5"/>
</g>
<!-- AppTooltipsComponent -->
<g id="node5" class="node">
<title>AppTooltipsComponent</title>
<polygon fill="#ffffb3" stroke="black" points="176.11,-122 23.89,-122 23.89,-86 176.11,-86 176.11,-122"/>
<text text-anchor="middle" x="100" y="-99.8" font-family="Times,serif" font-size="14.00">AppTooltipsComponent</text>
</g>
<!-- AppTooltipsComponent&#45;&gt;UicomponentsModule -->
<g id="edge5" class="edge">
<title>AppTooltipsComponent&#45;&gt;UicomponentsModule</title>
<path fill="none" stroke="black" d="M100,-122.28C100,-143.32 100,-175 100,-175 100,-175 411.01,-175 411.01,-175"/>
<polygon fill="black" stroke="black" points="411.01,-178.5 421.01,-175 411.01,-171.5 411.01,-178.5"/>
</g>
<!-- MaterialModule -->
<g id="node7" class="node">
<title>MaterialModule</title>
<polygon fill="#8dd3c7" stroke="black" points="928.47,-122 925.47,-126 904.47,-126 901.47,-122 821.53,-122 821.53,-86 928.47,-86 928.47,-122"/>
<text text-anchor="middle" x="875" y="-99.8" font-family="Times,serif" font-size="14.00">MaterialModule</text>
</g>
<!-- MaterialModule&#45;&gt;UicomponentsModule -->
<g id="edge6" class="edge">
<title>MaterialModule&#45;&gt;UicomponentsModule</title>
<path fill="none" stroke="black" d="M875,-122.28C875,-143.32 875,-175 875,-175 875,-175 572.69,-175 572.69,-175"/>
<polygon fill="black" stroke="black" points="572.69,-171.5 562.69,-175 572.69,-178.5 572.69,-171.5"/>
</g>
</g>
</svg>
