<?xml version="1.0" encoding="UTF-8" standalone="no"?>
<!DOCTYPE svg PUBLIC "-//W3C//DTD SVG 1.1//EN"
 "http://www.w3.org/Graphics/SVG/1.1/DTD/svg11.dtd">
<!-- Generated by graphviz version 2.47.0 (20210316.0004)
 -->
<!-- Title: dependencies Pages: 1 -->
<svg width="2109pt" height="284pt"
 viewBox="0.00 0.00 2109.00 284.00" xmlns="http://www.w3.org/2000/svg" xmlns:xlink="http://www.w3.org/1999/xlink">
<g id="graph0" class="graph" transform="scale(1 1) rotate(0) translate(4 280)">
<title>dependencies</title>
<polygon fill="white" stroke="transparent" points="-4,4 -4,-280 2105,-280 2105,4 -4,4"/>
<text text-anchor="start" x="1029.51" y="-42.4" font-family="Times-12" font-weight="bold" font-size="14.00">Legend</text>
<polygon fill="#ffffb3" stroke="transparent" points="816.5,-10 816.5,-30 836.5,-30 836.5,-10 816.5,-10"/>
<text text-anchor="start" x="840.13" y="-15.4" font-family="Times-12" font-size="14.00"> &#160;Declarations</text>
<polygon fill="#8dd3c7" stroke="transparent" points="929.5,-10 929.5,-30 949.5,-30 949.5,-10 929.5,-10"/>
<text text-anchor="start" x="953.23" y="-15.4" font-family="Times-12" font-size="14.00"> &#160;Module</text>
<polygon fill="#80b1d3" stroke="transparent" points="1015.5,-10 1015.5,-30 1035.5,-30 1035.5,-10 1015.5,-10"/>
<text text-anchor="start" x="1039.28" y="-15.4" font-family="Times-12" font-size="14.00"> &#160;Bootstrap</text>
<polygon fill="#fdb462" stroke="transparent" points="1112.5,-10 1112.5,-30 1132.5,-30 1132.5,-10 1112.5,-10"/>
<text text-anchor="start" x="1136.17" y="-15.4" font-family="Times-12" font-size="14.00"> &#160;Providers</text>
<polygon fill="#fb8072" stroke="transparent" points="1208.5,-10 1208.5,-30 1228.5,-30 1228.5,-10 1208.5,-10"/>
<text text-anchor="start" x="1232.23" y="-15.4" font-family="Times-12" font-size="14.00"> &#160;Exports</text>
<g id="clust1" class="cluster">
<title>cluster_AppModule</title>
<polygon fill="none" stroke="black" stroke-dasharray="1,5" points="8,-70 8,-268 2093,-268 2093,-70 8,-70"/>
</g>
<g id="clust2" class="cluster">
<title>cluster_AppModule_declarations</title>
<polygon fill="none" stroke="black" points="432,-78 432,-130 2085,-130 2085,-78 432,-78"/>
</g>
<g id="clust15" class="cluster">
<title>cluster_AppModule_exports</title>
<polygon fill="none" stroke="black" points="857,-208 857,-260 943,-260 943,-208 857,-208"/>
</g>
<g id="clust16" class="cluster">
<title>cluster_AppModule_bootstrap</title>
<polygon fill="none" stroke="black" points="951,-208 951,-260 1075,-260 1075,-208 951,-208"/>
</g>
<g id="clust14" class="cluster">
<title>cluster_AppModule_imports</title>
<polygon fill="none" stroke="black" points="16,-78 16,-130 424,-130 424,-78 16,-78"/>
</g>
<!-- AddDiagnosticDialogComponent -->
<g id="node1" class="node">
<title>AddDiagnosticDialogComponent</title>
<polygon fill="#ffffb3" stroke="black" points="2077.19,-122 1872.81,-122 1872.81,-86 2077.19,-86 2077.19,-122"/>
<text text-anchor="middle" x="1975" y="-99.8" font-family="Times,serif" font-size="14.00">AddDiagnosticDialogComponent</text>
</g>
<!-- AppModule -->
<g id="node12" class="node">
<title>AppModule</title>
<polygon fill="#8dd3c7" stroke="black" points="997.66,-187 994.66,-191 973.66,-191 970.66,-187 914.34,-187 914.34,-151 997.66,-151 997.66,-187"/>
<text text-anchor="middle" x="956" y="-164.8" font-family="Times,serif" font-size="14.00">AppModule</text>
</g>
<!-- AddDiagnosticDialogComponent&#45;&gt;AppModule -->
<g id="edge1" class="edge">
<title>AddDiagnosticDialogComponent&#45;&gt;AppModule</title>
<path fill="none" stroke="black" d="M1975,-122.09C1975,-145.13 1975,-182 1975,-182 1975,-182 1007.85,-182 1007.85,-182"/>
<polygon fill="black" stroke="black" points="1007.85,-178.5 997.85,-182 1007.85,-185.5 1007.85,-178.5"/>
</g>
<!-- AddPatientDialogComponent -->
<g id="node2" class="node">
<title>AddPatientDialogComponent</title>
<polygon fill="#ffffb3" stroke="black" points="1855.43,-122 1672.57,-122 1672.57,-86 1855.43,-86 1855.43,-122"/>
<text text-anchor="middle" x="1764" y="-99.8" font-family="Times,serif" font-size="14.00">AddPatientDialogComponent</text>
</g>
<!-- AddPatientDialogComponent&#45;&gt;AppModule -->
<g id="edge2" class="edge">
<title>AddPatientDialogComponent&#45;&gt;AppModule</title>
<path fill="none" stroke="black" d="M1764,-122.04C1764,-143.66 1764,-177 1764,-177 1764,-177 1007.74,-177 1007.74,-177"/>
<polygon fill="black" stroke="black" points="1007.74,-173.5 997.74,-177 1007.74,-180.5 1007.74,-173.5"/>
</g>
<!-- AppComponent -->
<g id="node3" class="node">
<title>AppComponent</title>
<polygon fill="#ffffb3" stroke="black" points="1654.94,-122 1549.06,-122 1549.06,-86 1654.94,-86 1654.94,-122"/>
<text text-anchor="middle" x="1602" y="-99.8" font-family="Times,serif" font-size="14.00">AppComponent</text>
</g>
<!-- AppComponent&#45;&gt;AppModule -->
<g id="edge3" class="edge">
<title>AppComponent&#45;&gt;AppModule</title>
<path fill="none" stroke="black" d="M1602,-122.22C1602,-142.37 1602,-172 1602,-172 1602,-172 1007.89,-172 1007.89,-172"/>
<polygon fill="black" stroke="black" points="1007.89,-168.5 997.89,-172 1007.89,-175.5 1007.89,-168.5"/>
</g>
<!-- AppNavItemComponent -->
<g id="node4" class="node">
<title>AppNavItemComponent</title>
<polygon fill="#ffffb3" stroke="black" points="1531.42,-122 1376.58,-122 1376.58,-86 1531.42,-86 1531.42,-122"/>
<text text-anchor="middle" x="1454" y="-99.8" font-family="Times,serif" font-size="14.00">AppNavItemComponent</text>
</g>
<!-- AppNavItemComponent&#45;&gt;AppModule -->
<g id="edge4" class="edge">
<title>AppNavItemComponent&#45;&gt;AppModule</title>
<path fill="none" stroke="black" d="M1454,-122.22C1454,-140.83 1454,-167 1454,-167 1454,-167 1008.03,-167 1008.03,-167"/>
<polygon fill="black" stroke="black" points="1008.03,-163.5 998.03,-167 1008.03,-170.5 1008.03,-163.5"/>
</g>
<!-- BlankComponent -->
<g id="node5" class="node">
<title>BlankComponent</title>
<polygon fill="#ffffb3" stroke="black" points="1358.27,-122 1243.73,-122 1243.73,-86 1358.27,-86 1358.27,-122"/>
<text text-anchor="middle" x="1301" y="-99.8" font-family="Times,serif" font-size="14.00">BlankComponent</text>
</g>
<!-- BlankComponent&#45;&gt;AppModule -->
<g id="edge5" class="edge">
<title>BlankComponent&#45;&gt;AppModule</title>
<path fill="none" stroke="black" d="M1301,-122.03C1301,-139.06 1301,-162 1301,-162 1301,-162 1007.96,-162 1007.96,-162"/>
<polygon fill="black" stroke="black" points="1007.96,-158.5 997.96,-162 1007.96,-165.5 1007.96,-158.5"/>
</g>
<!-- BrandingComponent -->
<g id="node6" class="node">
<title>BrandingComponent</title>
<polygon fill="#ffffb3" stroke="black" points="1225.94,-122 1092.06,-122 1092.06,-86 1225.94,-86 1225.94,-122"/>
<text text-anchor="middle" x="1159" y="-99.8" font-family="Times,serif" font-size="14.00">BrandingComponent</text>
</g>
<!-- BrandingComponent&#45;&gt;AppModule -->
<g id="edge6" class="edge">
<title>BrandingComponent&#45;&gt;AppModule</title>
<path fill="none" stroke="black" d="M1159,-122.24C1159,-137.57 1159,-157 1159,-157 1159,-157 1008.06,-157 1008.06,-157"/>
<polygon fill="black" stroke="black" points="1008.06,-153.5 998.06,-157 1008.06,-160.5 1008.06,-153.5"/>
</g>
<!-- FullComponent -->
<g id="node7" class="node">
<title>FullComponent</title>
<polygon fill="#ffffb3" stroke="black" points="1073.9,-122 970.1,-122 970.1,-86 1073.9,-86 1073.9,-122"/>
<text text-anchor="middle" x="1022" y="-99.8" font-family="Times,serif" font-size="14.00">FullComponent</text>
</g>
<!-- FullComponent&#45;&gt;AppModule -->
<g id="edge7" class="edge">
<title>FullComponent&#45;&gt;AppModule</title>
<path fill="none" stroke="black" d="M983.94,-122.11C983.94,-122.11 983.94,-140.99 983.94,-140.99"/>
<polygon fill="black" stroke="black" points="980.44,-140.99 983.94,-150.99 987.44,-140.99 980.44,-140.99"/>
</g>
<!-- HeaderComponent -->
<g id="node8" class="node">
<title>HeaderComponent</title>
<polygon fill="#ffffb3" stroke="black" points="951.74,-122 830.26,-122 830.26,-86 951.74,-86 951.74,-122"/>
<text text-anchor="middle" x="891" y="-99.8" font-family="Times,serif" font-size="14.00">HeaderComponent</text>
</g>
<!-- HeaderComponent&#45;&gt;AppModule -->
<g id="edge8" class="edge">
<title>HeaderComponent&#45;&gt;AppModule</title>
<path fill="none" stroke="black" d="M933.02,-122.11C933.02,-122.11 933.02,-140.99 933.02,-140.99"/>
<polygon fill="black" stroke="black" points="929.52,-140.99 933.02,-150.99 936.52,-140.99 929.52,-140.99"/>
</g>
<!-- HistogramaComponent -->
<g id="node9" class="node">
<title>HistogramaComponent</title>
<polygon fill="#ffffb3" stroke="black" points="812.15,-122 665.85,-122 665.85,-86 812.15,-86 812.15,-122"/>
<text text-anchor="middle" x="739" y="-99.8" font-family="Times,serif" font-size="14.00">HistogramaComponent</text>
</g>
<!-- HistogramaComponent&#45;&gt;AppModule -->
<g id="edge9" class="edge">
<title>HistogramaComponent&#45;&gt;AppModule</title>
<path fill="none" stroke="black" d="M739,-122.24C739,-137.57 739,-157 739,-157 739,-157 904.16,-157 904.16,-157"/>
<polygon fill="black" stroke="black" points="904.16,-160.5 914.16,-157 904.16,-153.5 904.16,-160.5"/>
</g>
<!-- SafePipe -->
<g id="node10" class="node">
<title>SafePipe</title>
<polygon fill="#ffffb3" stroke="black" points="647.76,-122 582.24,-122 582.24,-86 647.76,-86 647.76,-122"/>
<text text-anchor="middle" x="615" y="-99.8" font-family="Times,serif" font-size="14.00">SafePipe</text>
</g>
<!-- SafePipe&#45;&gt;AppModule -->
<g id="edge10" class="edge">
<title>SafePipe&#45;&gt;AppModule</title>
<path fill="none" stroke="black" d="M615,-122.03C615,-139.06 615,-162 615,-162 615,-162 904.19,-162 904.19,-162"/>
<polygon fill="black" stroke="black" points="904.19,-165.5 914.19,-162 904.19,-158.5 904.19,-165.5"/>
</g>
<!-- SidebarComponent -->
<g id="node11" class="node">
<title>SidebarComponent</title>
<polygon fill="#ffffb3" stroke="black" points="564.1,-122 439.9,-122 439.9,-86 564.1,-86 564.1,-122"/>
<text text-anchor="middle" x="502" y="-99.8" font-family="Times,serif" font-size="14.00">SidebarComponent</text>
</g>
<!-- SidebarComponent&#45;&gt;AppModule -->
<g id="edge11" class="edge">
<title>SidebarComponent&#45;&gt;AppModule</title>
<path fill="none" stroke="black" d="M502,-122.22C502,-140.83 502,-167 502,-167 502,-167 904.1,-167 904.1,-167"/>
<polygon fill="black" stroke="black" points="904.1,-170.5 914.1,-167 904.1,-163.5 904.1,-170.5"/>
</g>
<!-- SafePipe  -->
<g id="node16" class="node">
<title>SafePipe </title>
<polygon fill="#fb8072" stroke="black" points="934.76,-252 865.24,-252 865.24,-216 934.76,-216 934.76,-252"/>
<text text-anchor="middle" x="900" y="-229.8" font-family="Times,serif" font-size="14.00">SafePipe </text>
</g>
<!-- AppModule&#45;&gt;SafePipe  -->
<g id="edge15" class="edge">
<title>AppModule&#45;&gt;SafePipe </title>
<path fill="none" stroke="black" stroke-dasharray="5,2" d="M924.4,-187.11C924.4,-187.11 924.4,-205.99 924.4,-205.99"/>
<polygon fill="black" stroke="black" points="920.9,-205.99 924.4,-215.99 927.9,-205.99 920.9,-205.99"/>
</g>
<!-- AppComponent  -->
<g id="node17" class="node">
<title>AppComponent </title>
<polygon fill="#80b1d3" stroke="black" points="1067.44,-252 958.56,-252 958.56,-216 1067.44,-216 1067.44,-252"/>
<text text-anchor="middle" x="1013" y="-229.8" font-family="Times,serif" font-size="14.00">AppComponent </text>
</g>
<!-- AppModule&#45;&gt;AppComponent  -->
<g id="edge16" class="edge">
<title>AppModule&#45;&gt;AppComponent </title>
<path fill="none" stroke="black" stroke-dasharray="1,5" d="M978.18,-187.11C978.18,-187.11 978.18,-205.99 978.18,-205.99"/>
<polygon fill="black" stroke="black" points="974.68,-205.99 978.18,-215.99 981.68,-205.99 974.68,-205.99"/>
</g>
<!-- AppRoutingModule -->
<g id="node13" class="node">
<title>AppRoutingModule</title>
<polygon fill="#8dd3c7" stroke="black" points="416.27,-122 413.27,-126 392.27,-126 389.27,-122 287.73,-122 287.73,-86 416.27,-86 416.27,-122"/>
<text text-anchor="middle" x="352" y="-99.8" font-family="Times,serif" font-size="14.00">AppRoutingModule</text>
</g>
<!-- AppRoutingModule&#45;&gt;AppModule -->
<g id="edge12" class="edge">
<title>AppRoutingModule&#45;&gt;AppModule</title>
<path fill="none" stroke="black" d="M352,-122.22C352,-142.37 352,-172 352,-172 352,-172 904.01,-172 904.01,-172"/>
<polygon fill="black" stroke="black" points="904.01,-175.5 914.01,-172 904.01,-168.5 904.01,-175.5"/>
</g>
<!-- LoaderComponent -->
<g id="node14" class="node">
<title>LoaderComponent</title>
<polygon fill="#8dd3c7" stroke="black" points="269.47,-122 266.47,-126 245.47,-126 242.47,-122 148.53,-122 148.53,-86 269.47,-86 269.47,-122"/>
<text text-anchor="middle" x="209" y="-99.8" font-family="Times,serif" font-size="14.00">LoaderComponent</text>
</g>
<!-- LoaderComponent&#45;&gt;AppModule -->
<g id="edge13" class="edge">
<title>LoaderComponent&#45;&gt;AppModule</title>
<path fill="none" stroke="black" d="M209,-122.04C209,-143.66 209,-177 209,-177 209,-177 904.24,-177 904.24,-177"/>
<polygon fill="black" stroke="black" points="904.24,-180.5 914.24,-177 904.24,-173.5 904.24,-180.5"/>
</g>
<!-- MaterialModule -->
<g id="node15" class="node">
<title>MaterialModule</title>
<polygon fill="#8dd3c7" stroke="black" points="130.47,-122 127.47,-126 106.47,-126 103.47,-122 23.53,-122 23.53,-86 130.47,-86 130.47,-122"/>
<text text-anchor="middle" x="77" y="-99.8" font-family="Times,serif" font-size="14.00">MaterialModule</text>
</g>
<!-- MaterialModule&#45;&gt;AppModule -->
<g id="edge14" class="edge">
<title>MaterialModule&#45;&gt;AppModule</title>
<path fill="none" stroke="black" d="M77,-122.09C77,-145.13 77,-182 77,-182 77,-182 904.2,-182 904.2,-182"/>
<polygon fill="black" stroke="black" points="904.2,-185.5 914.2,-182 904.2,-178.5 904.2,-185.5"/>
</g>
</g>
</svg>
