<?xml version="1.0" encoding="UTF-8" standalone="no"?>
<!DOCTYPE svg PUBLIC "-//W3C//DTD SVG 1.1//EN"
 "http://www.w3.org/Graphics/SVG/1.1/DTD/svg11.dtd">
<!-- Generated by graphviz version 2.47.0 (20210316.0004)
 -->
<!-- Title: dependencies Pages: 1 -->
<svg width="514pt" height="211pt"
 viewBox="0.00 0.00 514.00 211.00" xmlns="http://www.w3.org/2000/svg" xmlns:xlink="http://www.w3.org/1999/xlink">
<g id="graph0" class="graph" transform="scale(1 1) rotate(0) translate(4 207)">
<title>dependencies</title>
<polygon fill="white" stroke="transparent" points="-4,4 -4,-207 510,-207 510,4 -4,4"/>
<text text-anchor="start" x="232.01" y="-42.4" font-family="Times-12" font-weight="bold" font-size="14.00">Legend</text>
<polygon fill="#ffffb3" stroke="transparent" points="19,-10 19,-30 39,-30 39,-10 19,-10"/>
<text text-anchor="start" x="42.63" y="-15.4" font-family="Times-12" font-size="14.00"> &#160;Declarations</text>
<polygon fill="#8dd3c7" stroke="transparent" points="132,-10 132,-30 152,-30 152,-10 132,-10"/>
<text text-anchor="start" x="155.73" y="-15.4" font-family="Times-12" font-size="14.00"> &#160;Module</text>
<polygon fill="#80b1d3" stroke="transparent" points="218,-10 218,-30 238,-30 238,-10 218,-10"/>
<text text-anchor="start" x="241.78" y="-15.4" font-family="Times-12" font-size="14.00"> &#160;Bootstrap</text>
<polygon fill="#fdb462" stroke="transparent" points="315,-10 315,-30 335,-30 335,-10 315,-10"/>
<text text-anchor="start" x="338.67" y="-15.4" font-family="Times-12" font-size="14.00"> &#160;Providers</text>
<polygon fill="#fb8072" stroke="transparent" points="411,-10 411,-30 431,-30 431,-10 411,-10"/>
<text text-anchor="start" x="434.73" y="-15.4" font-family="Times-12" font-size="14.00"> &#160;Exports</text>
<g id="clust1" class="cluster">
<title>cluster_ExtraModule</title>
<polygon fill="none" stroke="black" stroke-dasharray="1,5" points="8,-70 8,-195 498,-195 498,-70 8,-70"/>
</g>
<g id="clust2" class="cluster">
<title>cluster_ExtraModule_declarations</title>
<polygon fill="none" stroke="black" points="146,-78 146,-130 490,-130 490,-78 146,-78"/>
</g>
<g id="clust5" class="cluster">
<title>cluster_ExtraModule_imports</title>
<polygon fill="none" stroke="black" points="16,-78 16,-130 138,-130 138,-78 16,-78"/>
</g>
<!-- AppIconsComponent -->
<g id="node1" class="node">
<title>AppIconsComponent</title>
<polygon fill="#ffffb3" stroke="black" points="481.76,-122 346.24,-122 346.24,-86 481.76,-86 481.76,-122"/>
<text text-anchor="middle" x="414" y="-99.8" font-family="Times,serif" font-size="14.00">AppIconsComponent</text>
</g>
<!-- ExtraModule -->
<g id="node3" class="node">
<title>ExtraModule</title>
<polygon fill="#8dd3c7" stroke="black" points="285.87,-187 282.87,-191 261.87,-191 258.87,-187 196.13,-187 196.13,-151 285.87,-151 285.87,-187"/>
<text text-anchor="middle" x="241" y="-164.8" font-family="Times,serif" font-size="14.00">ExtraModule</text>
</g>
<!-- AppIconsComponent&#45;&gt;ExtraModule -->
<g id="edge1" class="edge">
<title>AppIconsComponent&#45;&gt;ExtraModule</title>
<path fill="none" stroke="black" d="M414,-122.11C414,-141.34 414,-169 414,-169 414,-169 296,-169 296,-169"/>
<polygon fill="black" stroke="black" points="296,-165.5 286,-169 296,-172.5 296,-165.5"/>
</g>
<!-- AppSamplePageComponent -->
<g id="node2" class="node">
<title>AppSamplePageComponent</title>
<polygon fill="#ffffb3" stroke="black" points="328.14,-122 153.86,-122 153.86,-86 328.14,-86 328.14,-122"/>
<text text-anchor="middle" x="241" y="-99.8" font-family="Times,serif" font-size="14.00">AppSamplePageComponent</text>
</g>
<!-- AppSamplePageComponent&#45;&gt;ExtraModule -->
<g id="edge2" class="edge">
<title>AppSamplePageComponent&#45;&gt;ExtraModule</title>
<path fill="none" stroke="black" d="M241,-122.11C241,-122.11 241,-140.99 241,-140.99"/>
<polygon fill="black" stroke="black" points="237.5,-140.99 241,-150.99 244.5,-140.99 237.5,-140.99"/>
</g>
<!-- MaterialModule -->
<g id="node4" class="node">
<title>MaterialModule</title>
<polygon fill="#8dd3c7" stroke="black" points="130.47,-122 127.47,-126 106.47,-126 103.47,-122 23.53,-122 23.53,-86 130.47,-86 130.47,-122"/>
<text text-anchor="middle" x="77" y="-99.8" font-family="Times,serif" font-size="14.00">MaterialModule</text>
</g>
<!-- MaterialModule&#45;&gt;ExtraModule -->
<g id="edge3" class="edge">
<title>MaterialModule&#45;&gt;ExtraModule</title>
<path fill="none" stroke="black" d="M77,-122.11C77,-141.34 77,-169 77,-169 77,-169 185.75,-169 185.75,-169"/>
<polygon fill="black" stroke="black" points="185.75,-172.5 195.75,-169 185.75,-165.5 185.75,-172.5"/>
</g>
</g>
</svg>
